# ProBuilder 4.0.5
# https://unity3d.com/unity/features/worldbuilding/probuilder
# 18/07/2019 12:59:02

mtllib ./flower-wind.mtl
o flower-wind

g flower-wind
v 0.02101278 0.07448578 0.1231699
v 0.0153935 0.07493239 0.1455151
v 0.009609076 0.07763678 0.1539155
v 0.001706162 0.08505601 0.159227
v -0.003886216 0.09025133 0.1616724
v -0.009210373 0.08451825 0.1543911
v -0.01169615 0.0767358 0.1463972
v -0.01213944 0.07408057 0.1372779
v -0.002926602 0.07448578 0.121766
v 0.003534009 0.07448578 0.1130068
v 0.007012811 0.07431376 0.1099411
v -0.001435671 0.07448578 0.1165105
v -0.01158304 0.06910903 0.1204521
v -0.02856503 0.07693028 0.121766
v -0.03472743 0.08410805 0.121328
v -0.03590311 0.09146932 0.1169485
v -0.03719623 0.09956669 0.1125689
v -0.03535445 0.08803408 0.09986822
v -0.02829318 0.08080442 0.09417485
v -0.01038115 0.07448578 0.09286094
v -0.004670593 0.07526177 0.09241618
v 0.003285539 0.07448578 0.102496
v -0.005854552 0.07723341 0.08757493
v -0.006482481 0.07227715 0.07315253
v -0.01014004 0.08003215 0.0640908
v -0.01331411 0.08911964 0.057636
v -0.01094033 0.1011175 0.05078867
v -0.01101324 0.1062842 0.04819983
v -0.0001111697 0.09806278 0.04877561
v 0.004638062 0.08999345 0.05129597
v 0.0126157 0.08329666 0.05790524
v 0.01794616 0.0747758 0.07463342
v 0.0184431 0.07448578 0.09373681
v 0.0219219 0.07448578 0.08848137
v 0.02937645 0.07448578 0.08103619
v 0.03906734 0.07448578 0.0779705
v 0.04826128 0.07448578 0.0749048
v 0.05844917 0.07448578 0.07534273
v 0.06540677 0.07448578 0.07621868
v 0.06143098 0.07448578 0.08804344
v 0.05273402 0.07448578 0.09636457
v 0.04329161 0.07448578 0.09899233
v 0.03558859 0.07448578 0.102058
v 0.02341283 0.07448578 0.1046857
v 0.03260673 0.06969662 0.1077514
v 0.04325504 0.07015248 0.1120707
v 0.05308444 0.07447018 0.114423
v 0.05971191 0.08155842 0.1203575
v 0.06292409 0.08789973 0.127914
v 0.06167363 0.09105363 0.1316288
v 0.05605419 0.08609258 0.133988
v 0.04675055 0.07873391 0.1349397
v 0.04007419 0.07457473 0.1340208
v 0.03064987 0.07269396 0.1296567
v 0.06125569 0.09366146 0.1304133
v 0.06028881 0.09000008 0.1267591
v 0.05334263 0.08811156 0.1327726
v 0.05713983 0.08508179 0.1192026
v 0.05002188 0.07848611 0.1132681
v 0.0442857 0.0822689 0.1337243
v 0.03962646 0.07273392 0.1116043
v 0.03760934 0.07729766 0.1328053
v 0.03260673 0.07417423 0.1077514
v 0.02639464 0.07657424 0.1287732
v 0.02101278 0.07896338 0.1231699
v 0.02341283 0.07262377 0.1046857
v 0.01287309 0.07669216 0.1080632
v 0.02021896 0.07245174 0.09764922
v 0.01047768 0.07245174 0.1032784
v 0.01794616 0.07896338 0.07621867
v -0.002429607 0.07896338 0.0906712
v 0.01289289 0.08674672 0.06074586
v -0.008172988 0.08169865 0.07963444
v 0.005897816 0.09193248 0.05513027
v -0.009862749 0.08348218 0.06693147
v 0.001148531 0.1000018 0.05260996
v -0.01205436 0.09105866 0.06147035
v -0.009680573 0.1030566 0.05462302
v -0.009753486 0.1082233 0.05203412
v -0.001435671 0.07896338 0.1165105
v -0.0006902051 0.07896338 0.09592664
v -0.01038115 0.07896338 0.09286094
v -0.009957814 0.07328127 0.1204521
v -0.02454477 0.08325358 0.09417485
v -0.02481662 0.07937945 0.121766
v -0.03030588 0.08481419 0.121328
v -0.0309329 0.08874024 0.09986822
v -0.03148151 0.09217545 0.1169485
v -0.03277468 0.1002728 0.1125689
v 0.0219219 0.07896338 0.08848137
v 0.02937645 0.07896338 0.08103619
v 0.03558859 0.07896338 0.102058
v 0.03906734 0.07896338 0.0779705
v 0.04329161 0.07896338 0.09899233
v 0.04826128 0.07896338 0.0749048
v 0.05273402 0.07896338 0.09636457
v 0.05844917 0.07896338 0.07534273
v 0.06143098 0.07896338 0.08804344
v 0.06540677 0.07896338 0.07621868
v 0.01871992 0.07896338 0.1399119
v 0.003534009 0.07896338 0.1130068
v 0.01095242 0.08059233 0.1508318
v -0.002926602 0.07896338 0.121766
v -0.01079621 0.07703611 0.1341942
v 0.002978406 0.0879276 0.1560358
v -0.01076584 0.080189 0.1428261
v -0.007938129 0.08738982 0.1511997
v -0.002614025 0.09312293 0.1584811

vt 0.4389751 0.5905106
vt 0.4641506 0.6469111
vt 0.4910175 0.6671708
vt 0.5293025 0.677693
vt 0.5563712 0.68185
vt 0.5776153 0.6661758
vt 0.5853698 0.6494718
vt 0.5862155 0.6276336
vt 0.5454221 0.5879537
vt 0.5166948 0.5655946
vt 0.5011533 0.557793
vt 0.5387927 0.5746362
vt 0.5816343 0.5873148
vt 0.6604601 0.5879534
vt 0.6909035 0.5840058
vt 0.6992513 0.5698324
vt 0.7084332 0.555346
vt 0.6953557 0.5282095
vt 0.6608933 0.5166771
vt 0.5785689 0.5153521
vt 0.5535057 0.5136607
vt 0.5177997 0.5390929
vt 0.5596059 0.5006477
vt 0.5602973 0.4664333
vt 0.5798476 0.4403819
vt 0.5978129 0.4203113
vt 0.5923429 0.3977672
vt 0.594857 0.3890116
vt 0.5428961 0.393562
vt 0.5183584 0.4032046
vt 0.4800473 0.4224361
vt 0.4527338 0.4680864
vt 0.4504012 0.5163761
vt 0.4349326 0.5029772
vt 0.4017858 0.4838915
vt 0.3586951 0.4757603
vt 0.3178139 0.4676496
vt 0.2725133 0.4683353
vt 0.2415761 0.4702587
vt 0.2592546 0.5002481
vt 0.2979258 0.5215943
vt 0.3399118 0.5286107
vt 0.3741634 0.5366601
vt 0.4283032 0.5437886
vt 0.3853925 0.5532091
vt 0.3382377 0.5634693
vt 0.296361 0.567136
vt 0.2698961 0.5787748
vt 0.2583008 0.5949673
vt 0.2651978 0.6030285
vt 0.288082 0.6113501
vt 0.326332 0.6173072
vt 0.3542558 0.617058
vt 0.3953641 0.607249
vt 0.2694237 0.597644
vt 0.2723417 0.5902938
vt 0.3025422 0.606666
vt 0.284496 0.5738294
vt 0.3136802 0.5624472
vt 0.3406408 0.6123363
vt 0.3577701 0.5615414
vt 0.3684742 0.6127635
vt 0.3895573 0.5514202
vt 0.4181129 0.6034383
vt 0.4429694 0.5883698
vt 0.4298893 0.5448534
vt 0.478337 0.5517893
vt 0.444039 0.5273511
vt 0.4873938 0.5419385
vt 0.4566178 0.4702493
vt 0.5473028 0.5075062
vt 0.4820526 0.4276399
vt 0.5738993 0.4785971
vt 0.5151469 0.411224
vt 0.5820945 0.4457921
vt 0.539337 0.4010819
vt 0.5947148 0.4283798
vt 0.588689 0.4050955
vt 0.5909681 0.3960208
vt 0.5428792 0.5725421
vt 0.5395614 0.5206692
vt 0.5826921 0.5133558
vt 0.5786585 0.5856407
vt 0.6473522 0.5151372
vt 0.6470965 0.5865563
vt 0.6735831 0.5829939
vt 0.6778591 0.5270292
vt 0.6816003 0.5683695
vt 0.6904191 0.5533854
vt 0.4389233 0.5009663
vt 0.4057459 0.4819015
vt 0.3780979 0.5345849
vt 0.3626153 0.4737726
vt 0.3438147 0.5265397
vt 0.3216965 0.4656647
vt 0.3017899 0.5195242
vt 0.276354 0.4663389
vt 0.263083 0.498201
vt 0.2453883 0.4682523
vt 0.4531741 0.630632
vt 0.520761 0.5635089
vt 0.4883606 0.6576549
vt 0.5495148 0.5858412
vt 0.5838103 0.6184275
vt 0.526625 0.667466
vt 0.584868 0.6386056
vt 0.575007 0.6560118
vt 0.5534803 0.6712885
vt 0.3860395 0.4858573
vt 0.412823 0.4961812
vt 0.3856761 0.4747961
vt 0.4124598 0.4851201
vt 0.4345724 0.4893804
vt 0.434209 0.478319
vt 0.4429343 0.4782543
vt 0.4448268 0.4664014
vt 0.4484728 0.4586241
vt 0.4478195 0.447674
vt 0.3493875 0.4668755
vt 0.3487337 0.4559254
vt 0.4208981 0.4088216
vt 0.425232 0.4061584
vt 0.3998335 0.3791332
vt 0.4041675 0.3764701
vt 0.3282924 0.4405686
vt 0.322098 0.4202704
vt 0.387193 0.3671974
vt 0.3662288 0.3533633
vt 0.3196338 0.3797922
vt 0.3239677 0.377129
vt 0.1955669 0.2147642
vt 0.1658153 0.2074464
vt 0.1999009 0.2121011
vt 0.1701492 0.2047832
vt 0.1743674 0.2411047
vt 0.1787014 0.2384415
vt 0.2051021 0.272771
vt 0.2094361 0.2701078
vt 0.2385526 0.2274998
vt 0.2428865 0.2248367
vt 0.2428629 0.2918298
vt 0.2471969 0.2891667
vt 0.2749721 0.2472698
vt 0.2793061 0.2446067
vt 0.2730357 0.3095828
vt 0.2773696 0.3069196
vt 0.3134738 0.2677121
vt 0.3178077 0.265049
vt 0.3222487 0.3323393
vt 0.3204464 0.3334468
vt 0.3396034 0.2956028
vt 0.3439374 0.2929396
vt 0.3505764 0.3128778
vt 0.3384852 0.3210419
vt 0.5950627 0.4182712
vt 0.5848895 0.3922645
vt 0.5772207 0.4118694
vt 0.5670475 0.3858627
vt 0.578805 0.4318119
vt 0.5609627 0.4254101
vt 0.5637519 0.4450735
vt 0.5459099 0.4386717
vt 0.5522091 0.3733955
vt 0.5388745 0.3668677
vt 0.5306847 0.4420532
vt 0.5173502 0.4355254
vt 0.4528634 0.4205884
vt 0.4500924 0.4159081
vt 0.4719455 0.3497787
vt 0.4762794 0.3471155
vt 0.4182539 0.3942357
vt 0.4225879 0.3915725
vt 0.4490752 0.3405278
vt 0.4335745 0.3413367
vt 0.4080797 0.3543321
vt 0.3754407 0.3476831
vt 0.535987 0.2249114
vt 0.4819568 0.2164292
vt 0.5299573 0.2312238
vt 0.4759273 0.2227418
vt 0.5289059 0.2340772
vt 0.5228761 0.2403896
vt 0.5225449 0.2608004
vt 0.5165151 0.2671129
vt 0.4960254 0.2773483
vt 0.4962557 0.2817148
vt 0.4525202 0.2208311
vt 0.4464905 0.2271435
vt 0.4669829 0.2986842
vt 0.4787418 0.3108694
vt 0.4080827 0.2298279
vt 0.4083135 0.2341944
vt 0.4592628 0.3293788
vt 0.4444649 0.3311212
vt 0.3660344 0.2676908
vt 0.369001 0.2689914
vt 0.2769909 0.3300813
vt 0.2813249 0.3274181
vt 0.2730751 0.3833337
vt 0.2952651 0.3846697
vt 0.2324177 0.3799021
vt 0.2462137 0.3787104
vt 0.2298567 0.3257341
vt 0.2478782 0.3279923
vt 0.2078408 0.3705936
vt 0.2224228 0.3689192
vt 0.1912399 0.3154939
vt 0.2087502 0.3144867
vt 0.1766351 0.3513543
vt 0.1907835 0.350915
vt 0.1662648 0.3165045
vt 0.1812433 0.3151267
vt 0.1537642 0.3264589
vt 0.1676302 0.3260131
vt 0.1595097 0.3351591
vt 0.1646182 0.3312666

vn -0.03849865 -0.214876 0.01218013
vn -0.02303697 -0.2192969 0.03615227
vn -0.01726455 -0.1956521 0.1160337
vn -0.01855974 -0.1301432 0.2899542
vn -0.04421427 -0.09979462 0.3445153
vn 0.01231187 -0.1458336 0.2538323
vn 0.01403772 -0.1807657 0.1681154
vn 0.02359511 -0.2214765 0.03885175
vn -0.01621714 -0.2185912 0.04654684
vn -0.001916878 -0.2237663 0.001474007
vn 0.0245459 -0.215947 -0.04074265
vn -0.02522952 -0.1971238 -0.1083703
vn -0.129862 -0.1708444 -0.07849325
vn -0.1846129 -0.1082911 -0.04516845
vn -0.2210784 -0.03530736 -1.526282E-06
vn -0.2027545 -0.07192083 -0.02247195
vn -0.1247188 -0.1713008 -0.08859125
vn 0.01552271 -0.2050713 -0.09017036
vn 0.006965433 -0.2221453 -0.02512982
vn -0.0118066 -0.2226196 -0.02137256
vn 0.01359654 -0.1847015 -0.04372871
vn 0.03685163 -0.1357095 -0.1679233
vn -0.02629426 -0.09439717 -0.3500414
vn -0.02866647 -0.07476529 -0.3671142
vn -0.03948558 -0.06077723 -0.3733392
vn -0.03790594 -0.06976262 -0.3676147
vn -0.02514776 -0.1054718 -0.3397132
vn 0.01991148 -0.1524915 -0.1331691
vn -0.03077914 -0.2061474 -0.09802078
vn -0.0005503695 -0.2238237 -0.006436064
vn 5.439766E-09 -0.22388 3.229114E-08
vn -0.01583162 -0.2197722 -0.007005142
vn -0.03372996 -0.2095543 0.06568695
vn 0.05438268 -0.1915727 0.1570397
vn 0.09462831 -0.16111 0.2104756
vn 0.1001227 -0.148352 0.2367595
vn 0.1077956 -0.1103624 0.276733
vn 0.1100668 -0.07626533 0.3162259
vn 0.1080049 -0.1295215 0.2500365
vn 0.09754238 -0.1694564 0.1842247
vn 0.041265 -0.2012063 0.1285008
vn -0.0138292 -0.2137445 0.08701543
vn -0.1088049 0.1173776 -0.2759101
vn -0.1047663 0.1407309 -0.2386359
vn -0.1049119 0.1521679 -0.2169407
vn -0.09996398 0.1646536 -0.2010928
vn -0.09979399 0.1684337 -0.1901841
vn -0.1065871 0.1698397 -0.172791
vn -0.0486989 0.1839141 -0.1489041
vn -0.02049097 0.1975349 -0.1161884
vn 0.03417156 0.2047895 -0.09961446
vn 0.04192078 0.2122757 -0.03680204
vn 0.02126707 0.2013232 -0.1001382
vn -0.01082707 0.1816958 -0.002044448
vn 0.003651943 0.1836136 -0.1646884
vn -0.02529122 0.166855 -0.008241222
vn 0.01845377 0.1717292 -0.04706549
vn 0.04175352 0.1897453 0.1937226
vn 0.03004025 0.1919438 0.1888461
vn 0.03054281 0.1784142 0.2206162
vn -0.0125071 0.1857063 0.1854402
vn 0.005611137 0.1400205 0.2533845
vn -0.002740674 0.1182938 0.2815861
vn 0.03716493 0.06942092 0.368139
vn 0.02862259 0.07481913 0.3670797
vn 0.03948602 0.06077783 0.3733388
vn -0.007956859 0.1842395 -0.04343347
vn 0.055368 0.2091637 0.006228995
vn -0.01333991 0.2035983 0.08314301
vn 0.01497511 0.1958797 0.1131935
vn 0.1147139 0.1789299 0.09100093
vn 0.1193824 0.1789943 0.08172715
vn 0.1766833 0.1161155 0.04924982
vn 0.199103 0.07546306 0.02481549
vn 0.2210784 0.03530696 -2.459831E-07
vn -0.04076923 0.154309 0.1991868
vn -0.01036787 0.2003581 0.09657751
vn -0.03198007 0.2145908 0.02935674
vn 7.390679E-10 0.22388 -2.187097E-08
vn 0.005935733 0.21853 -0.04566961
vn 0.01868802 0.2201983 -0.0466482
vn 0.007078141 0.1982798 -0.08812293
vn -0.0260132 0.221394 4.249849E-05
vn -0.0088863 0.1781313 -0.1645194
vn 0.02546478 0.130949 -0.299498
vn 0.00156753 0.1472826 -0.2730941
vn 0.04339412 0.1044741 -0.3403784
vn 0.04421448 0.09979526 -0.3445147
vn 0.1085278 0.06775891 0.3238048
vn -0.1782424 0.1193623 0.1129177
vn -0.2084189 0.07894792 -0.03743217
vn -0.2101249 0.07415456 -0.0002529024
vn -0.2118309 0.06936119 0.03692636
vn -0.2172467 0.05337642 -0.01547251
vn -0.2128702 0.06126992 -0.04583483
vn -0.2084937 0.0691634 -0.07619715
vn 0.1193695 0.05333017 0.320315
vn 0.1200846 0.056314 0.3178334
vn 0.1207998 0.05929782 0.3153518
vn -0.1530043 -0.02598531 -0.284395
vn -0.1512033 -0.01299264 -0.2891345
vn -0.1494022 1.848627E-08 -0.293874
vn -0.1365026 1.967427E-08 -0.3127595
vn 0.1457839 0.01329075 0.2985482
vn 0.1440615 0.02435984 0.2983244
vn 0.142339 0.03542892 0.2981005
vn -0.1001224 2.220124E-08 -0.3529305
vn -0.07739136 0.01950035 -0.3646765
vn -0.05466027 0.03900068 -0.3764226
vn 0.2046766 -1.005797E-08 0.1598904
vn 0.1949398 -0.05878701 0.1193409
vn 0.185203 -0.117574 0.07879135
vn 0.01595152 6.635358E-08 -0.3935856
vn 0.1926015 -3.39137E-08 0.2011639
vn 0.1068114 -5.846364E-08 0.3467854
vn 0.00545855 6.650288E-08 -0.3944712
vn 0.03491741 -6.570859E-08 0.3897598
vn -0.04161756 6.536317E-08 -0.3877109
vn 0.04931228 -2.421215E-08 0.3848977
vn -0.03955179 6.547632E-08 -0.388382
vn 0.02721008 -2.463775E-08 0.3916633
vn 2.251848E-07 -6.26282E-07 -4.703872E-08
vn -0.02720962 -1.227926E-06 -0.3916634
vn -0.1103751 5.787628E-08 -0.3433013
vn 0.08481431 0.1820371 0.1744007
vn -0.06397669 0.09101859 0.02581474
vn -0.2127677 2.069769E-08 -0.1227713
vn -0.01854041 0.11609 -0.3358088
vn -0.01023926 0.06411523 0.3776304
vn -0.01116504 0.06991003 0.3743401
vn -0.01286928 0.08058065 -0.3674439
vn -0.02914639 0.07505028 -0.3669413
vn -0.04542349 0.06951992 -0.3664387
vn -0.003243494 0.004964041 0.3944501
vn -0.002325133 0.006886251 0.3943626
vn -0.001406771 0.008808462 0.3942752
vn 0.00832615 -0.003243338 0.3942741
vn 0.007606989 -0.006892549 0.394119
vn 0.006887828 -0.01054176 0.3939638
vn -0.006043493 0.009249394 -0.3941077
vn -0.008905362 0.00462473 -0.3940754
vn -0.01176723 6.64307E-08 -0.3940431
vn 0.04818489 -2.424003E-08 0.385341
vn 0.06118077 -0.01444718 0.3770713
vn 0.07417665 -0.02889433 0.3688016
vn -0.009883589 6.645779E-08 -0.3942038
vn 0.01378341 0.03600004 -0.3809766
vn 0.03745041 0.07200001 -0.3677495
vn 0.1262471 -0.03844518 -0.318744
vn 0.04534239 -0.09882799 -0.2944923
vn -0.03556237 -0.1592108 -0.2702407
vn 0.07700352 -0.1092801 0.3165176
vn 0.07405519 -0.05464006 0.3453374
vn 0.07110686 -2.353651E-08 0.3741571
vn 0.09566894 0.1203966 -0.2867754
vn -0.2012749 0.02416937 0.1674514
vn -0.2054811 0.0614486 0.1131825
vn -0.1989446 -0.02989991 0.1731317
vn -0.1948436 -0.01861595 0.18966
vn -0.1907425 -0.007331993 0.2061883
vn 0.1550666 0.06507462 -0.26048
vn -0.2078906 -0.05981416 0.1016465
vn -0.2130495 -0.03275812 0.09466352
vn -0.2182084 -0.005702066 0.08768053
vn 0.1406812 0.08136358 -0.2713965
vn 0.1345994 0.07518776 -0.2853626
vn 0.1285175 0.06901192 -0.2993287
vn -0.03844545 0.1899441 -0.1975687
vn -0.104468 0.05583066 0.008883534
vn -0.1704905 -0.07828277 0.2153358
vn 0.203041 0.02603761 -0.1597825
vn 0.2018599 0.02343972 -0.1654038
vn 0.2006788 0.02084184 -0.1710251
vn 0.06066106 0.2154595 0.007818532
vn -0.02233108 0.111763 0.1778623
vn -0.1053232 0.008066401 0.3479061
vn 0.223637 0.002189698 -0.01796834
vn 0.05618433 -0.08848073 -0.0752039
vn -0.1112684 -0.1791511 -0.1324395
vn -0.041617 1.215535E-06 0.3877111
vn 0.04161737 2.438914E-08 -0.3877109
vn -0.08712421 -0.07050771 0.3415809
vn -0.100496 -0.03525387 0.3406601
vn -0.1138678 -2.137144E-08 0.3397393
vn -0.05741344 0.002827992 0.3813602
vn -0.05039908 -0.008243415 0.3834846
vn -0.04338472 -0.01931482 0.3856089
vn 0.05021219 2.418942E-08 -0.3845361
vn 0.06387238 0.0447528 -0.3597049
vn 0.07753257 0.08950556 -0.3348737
vn -0.03071365 0.02163634 0.388993
vn -0.03286603 0.0228048 0.3882137
vn -0.0350184 0.02397327 0.3874344
vn 0.02483571 0.01213526 -0.3915693
vn 0.02652954 -0.001249885 -0.3910795
vn 0.02822337 -0.01463503 -0.3905897
vn -0.0224523 0.04440324 0.3847199
vn -0.01626665 0.04021569 0.38688
vn -0.01008099 0.03602814 0.3890401
vn 0.07825953 0.0257152 -0.3669068
vn 0.07918782 0.0227494 -0.3668556
vn 0.08011612 0.0197836 -0.3668045
vn 0.1237653 0.05733554 -0.3128974
vn 0.1169425 0.0702534 -0.311805
vn 0.1101196 0.08317126 -0.3107127
vn 0.1354986 0.133002 -0.2090836
vn 0.1674117 0.06901047 -0.1942681
vn 0.1993247 0.005018922 -0.1794527
vn 0.0008963822 0.05737168 0.381409
vn -0.003444083 0.06012979 0.3799308
vn -0.007784548 0.06288791 0.3784525

g flower-wind
usemtl purple-flower
f 51/51/39 49/49/37 50/50/38
f 51/51/39 48/48/36 49/49/37
f 47/47/35 48/48/36 51/51/39
f 47/47/35 51/51/39 52/52/40
f 46/46/34 47/47/35 52/52/40
f 53/53/41 46/46/34 52/52/40
f 45/45/33 46/46/34 53/53/41
f 54/54/42 45/45/33 53/53/41
f 45/45/33 54/54/42 1/1/1
f 44/44/32 45/45/33 1/1/1
f 11/11/10 44/44/32 1/1/1
f 11/11/10 33/33/30 44/44/32
f 22/22/20 33/33/30 11/11/10
f 33/33/30 22/22/20 32/32/29
f 22/22/20 23/23/21 32/32/29
f 23/23/21 31/31/28 32/32/29
f 24/24/22 31/31/28 23/23/21
f 30/30/27 31/31/28 24/24/22
f 25/25/23 30/30/27 24/24/22
f 29/29/26 30/30/27 25/25/23
f 29/29/26 25/25/23 26/26/24
f 27/27/25 29/29/26 26/26/24
f 28/28/25 29/29/26 27/27/25
f 22/22/20 11/11/10 12/12/11
f 12/12/11 21/21/19 22/22/20
f 20/20/18 21/21/19 12/12/11
f 20/20/18 12/12/11 13/13/12
f 19/19/17 20/20/18 13/13/12
f 19/19/17 13/13/12 14/14/13
f 15/15/14 19/19/17 14/14/13
f 18/18/16 19/19/17 15/15/14
f 16/16/15 18/18/16 15/15/14
f 17/17/15 18/18/16 16/16/15
f 33/33/30 34/34/31 44/44/32
f 35/35/31 44/44/32 34/34/31
f 35/35/31 43/43/31 44/44/32
f 35/35/31 36/36/31 43/43/31
f 43/43/31 36/36/31 42/42/31
f 36/36/31 37/37/31 42/42/31
f 42/42/31 37/37/31 41/41/31
f 37/37/31 38/38/31 41/41/31
f 41/41/31 38/38/31 40/40/31
f 38/38/31 39/39/31 40/40/31
f 11/11/10 1/1/1 2/2/2
f 11/11/10 2/2/2 10/10/9
f 2/2/2 3/3/3 10/10/9
f 9/9/8 10/10/9 3/3/3
f 8/8/7 9/9/8 3/3/3
f 8/8/7 3/3/3 4/4/4
f 4/4/4 7/7/6 8/8/7
f 7/7/6 4/4/4 6/6/5
f 6/6/5 4/4/4 5/5/5
f 108/108/88 105/105/85 107/107/87
f 107/107/87 105/105/85 106/106/86
f 104/104/84 106/106/86 105/105/85
f 105/105/85 102/102/82 104/104/84
f 102/102/82 103/103/83 104/104/84
f 102/102/82 101/101/81 103/103/83
f 101/101/81 102/102/82 100/100/80
f 101/101/81 100/100/80 67/67/55
f 100/100/80 65/65/53 67/67/55
f 98/98/79 99/99/79 97/97/79
f 98/98/79 97/97/79 96/96/79
f 96/96/79 97/97/79 95/95/79
f 96/96/79 95/95/79 94/94/79
f 94/94/79 95/95/79 93/93/79
f 94/94/79 93/93/79 92/92/78
f 92/92/78 93/93/79 91/91/77
f 66/66/54 92/92/78 91/91/77
f 90/90/76 66/66/54 91/91/77
f 66/66/54 90/90/76 68/68/56
f 88/88/75 87/87/74 89/89/75
f 86/86/73 87/87/74 88/88/75
f 86/86/73 84/84/71 87/87/74
f 85/85/72 84/84/71 86/86/73
f 85/85/72 83/83/70 84/84/71
f 83/83/70 82/82/69 84/84/71
f 83/83/70 80/80/67 82/82/69
f 80/80/67 81/81/68 82/82/69
f 69/69/57 81/81/68 80/80/67
f 80/80/67 67/67/55 69/69/57
f 78/78/66 76/76/64 79/79/66
f 77/77/65 76/76/64 78/78/66
f 77/77/65 75/75/63 76/76/64
f 75/75/63 74/74/62 76/76/64
f 73/73/61 74/74/62 75/75/63
f 73/73/61 72/72/60 74/74/62
f 71/71/59 72/72/60 73/73/61
f 70/70/58 72/72/60 71/71/59
f 70/70/58 71/71/59 69/69/57
f 70/70/58 69/69/57 68/68/56
f 67/67/55 68/68/56 69/69/57
f 66/66/54 68/68/56 67/67/55
f 65/65/53 66/66/54 67/67/55
f 65/65/53 63/63/51 66/66/54
f 65/65/53 64/64/52 63/63/51
f 62/62/50 63/63/51 64/64/52
f 62/62/50 61/61/49 63/63/51
f 60/60/48 61/61/49 62/62/50
f 60/60/48 59/59/47 61/61/49
f 60/60/48 57/57/45 59/59/47
f 57/57/45 58/58/46 59/59/47
f 56/56/44 58/58/46 57/57/45
f 55/55/43 56/56/44 57/57/45
f 108/112/89 5/110/89 4/109/89
f 4/109/89 105/111/89 108/112/89
f 107/114/90 6/113/90 5/110/90
f 5/110/90 108/112/90 107/114/90
f 106/116/93 7/115/92 6/113/91
f 6/113/91 107/114/92 106/116/93
f 104/118/96 8/117/95 7/115/94
f 7/115/94 106/116/95 104/118/96
f 105/111/99 4/109/98 3/119/97
f 3/119/97 102/120/98 105/111/99
f 103/122/102 9/121/101 8/117/100
f 8/117/100 104/118/101 103/122/102
f 101/124/103 10/123/103 9/121/103
f 9/121/103 103/122/103 101/124/103
f 102/120/106 3/119/105 2/125/104
f 2/125/104 100/126/105 102/120/106
f 67/128/109 11/127/108 10/123/107
f 10/123/107 101/124/108 67/128/109
f 100/126/112 2/125/111 1/129/110
f 1/129/110 65/130/111 100/126/112
f 99/134/113 39/132/113 38/131/113
f 38/131/113 97/133/113 99/134/113
f 98/136/114 40/135/114 39/132/114
f 39/132/114 99/134/114 98/136/114
f 96/138/115 41/137/115 40/135/115
f 40/135/115 98/136/115 96/138/115
f 97/133/116 38/131/116 37/139/116
f 37/139/116 95/140/116 97/133/116
f 94/142/117 42/141/117 41/137/117
f 41/137/117 96/138/117 94/142/117
f 95/140/118 37/139/118 36/143/118
f 36/143/118 93/144/118 95/140/118
f 92/146/119 43/145/119 42/141/119
f 42/141/119 94/142/119 92/146/119
f 93/144/120 36/143/120 35/147/120
f 35/147/120 91/148/120 93/144/120
f 66/150/123 44/149/122 43/145/121
f 43/145/121 92/146/122 66/150/123
f 91/148/124 35/147/124 34/151/124
f 34/151/124 90/152/124 91/148/124
f 90/152/127 34/151/126 33/153/125
f 33/153/125 68/154/126 90/152/127
f 87/158/128 18/156/128 17/155/128
f 17/155/128 89/157/128 87/158/128
f 89/157/129 17/155/129 16/159/129
f 16/159/129 88/160/129 89/157/129
f 88/160/130 16/159/130 15/161/130
f 15/161/130 86/162/130 88/160/130
f 84/164/133 19/163/132 18/156/131
f 18/156/131 87/158/132 84/164/133
f 86/162/136 15/161/135 14/165/134
f 14/165/134 85/166/135 86/162/136
f 85/166/139 14/165/138 13/167/137
f 13/167/137 83/168/138 85/166/139
f 82/170/142 20/169/141 19/163/140
f 19/163/140 84/164/141 82/170/142
f 83/168/145 13/167/144 12/171/143
f 12/171/143 80/172/144 83/168/145
f 81/174/148 21/173/147 20/169/146
f 20/169/146 82/170/147 81/174/148
f 69/176/151 22/175/150 21/173/149
f 21/173/149 81/174/150 69/176/151
f 80/172/154 12/171/153 11/127/152
f 11/127/152 67/128/153 80/172/154
f 76/180/155 29/178/155 28/177/155
f 28/177/155 79/179/155 76/180/155
f 79/179/156 28/177/156 27/181/156
f 27/181/156 78/182/156 79/179/156
f 78/182/157 27/181/157 26/183/157
f 26/183/157 77/184/157 78/182/157
f 77/184/160 26/183/159 25/185/158
f 25/185/158 75/186/159 77/184/160
f 74/188/161 30/187/161 29/178/161
f 29/178/161 76/180/161 74/188/161
f 75/186/164 25/185/163 24/189/162
f 24/189/162 73/190/163 75/186/164
f 72/192/167 31/191/166 30/187/165
f 30/187/165 74/188/166 72/192/167
f 73/190/170 24/189/169 23/193/168
f 23/193/168 71/194/169 73/190/170
f 70/196/173 32/195/172 31/191/171
f 31/191/171 72/192/172 70/196/173
f 71/194/176 23/193/175 22/175/174
f 22/175/174 69/176/175 71/194/176
f 68/154/179 33/153/178 32/195/177
f 32/195/177 70/196/178 68/154/179
f 63/198/181 45/197/122 44/149/180
f 44/149/180 66/150/122 63/198/181
f 65/130/184 1/129/183 54/199/182
f 54/199/182 64/200/183 65/130/184
f 64/200/187 54/199/186 53/201/185
f 53/201/185 62/202/186 64/200/187
f 61/204/190 46/203/189 45/197/188
f 45/197/188 63/198/189 61/204/190
f 62/202/193 53/201/192 52/205/191
f 52/205/191 60/206/192 62/202/193
f 59/208/196 47/207/195 46/203/194
f 46/203/194 61/204/195 59/208/196
f 60/206/199 52/205/198 51/209/197
f 51/209/197 57/210/198 60/206/199
f 58/212/202 48/211/201 47/207/200
f 47/207/200 59/208/201 58/212/202
f 56/214/205 49/213/204 48/211/203
f 48/211/203 58/212/204 56/214/205
f 55/216/208 50/215/207 49/213/206
f 49/213/206 56/214/207 55/216/208
f 57/210/211 51/209/210 50/215/209
f 50/215/209 55/216/210 57/210/211

